<svg width="32" height="32" viewBox="0 0 32 32" fill="none" xmlns="http://www.w3.org/2000/svg">
<g clip-path="url(#clip0_542_12719)">
<path d="M25.1157 6.01353L22.2638 9.35042C20.6263 7.80729 18.4219 6.85978 16 6.85978C10.9606 6.85978 6.85998 10.9604 6.85998 15.9998C6.85998 16.2029 6.86748 16.4048 6.8806 16.6048H8.90374C9.57936 16.6048 9.94062 17.4004 9.49686 17.9092L7.74436 19.9192L4.84622 23.2442L4.03872 22.318L0.195576 17.9092C-0.248801 17.4004 0.113076 16.6048 0.788704 16.6048H2.49246C2.48371 16.4042 2.47871 16.2023 2.47871 15.9998C2.47871 12.3879 3.88497 8.99229 6.43873 6.43853C8.99249 3.88477 12.3881 2.47852 16 2.47852C19.4057 2.47852 22.6188 3.72977 25.1157 6.01353ZM31.2113 16.6417H29.5063C29.3501 20.0123 27.9632 23.1586 25.5613 25.5611C23.0075 28.1149 19.6119 29.5211 16 29.5211C12.8913 29.5211 9.94311 28.4786 7.5531 26.5592L10.4056 23.2223C11.9531 24.4236 13.8944 25.1399 16 25.1399C20.8238 25.1399 24.7863 21.383 25.1169 16.6417H23.0963C22.4207 16.6417 22.0594 15.8467 22.5032 15.3373L24.6069 12.9242L27.1538 10.0023L28.9382 12.0492L31.8045 15.3373C32.2488 15.8467 31.887 16.6417 31.2113 16.6417Z" fill="url(#paint0_linear_542_12719)"/>
<path d="M22.2638 9.35042C20.6263 7.80729 18.4219 6.85978 16 6.85978V2.47852C19.4056 2.47852 22.6188 3.72977 25.1157 6.01353L22.2638 9.35042ZM31.2113 16.6417H29.5063C29.3501 20.0123 27.9632 23.1586 25.5613 25.5611C23.0075 28.1149 19.6119 29.5211 16 29.5211V25.1399C20.8238 25.1399 24.7863 21.383 25.1169 16.6417H23.0963C22.4207 16.6417 22.0594 15.8467 22.5032 15.3373L24.6069 12.9242L27.1538 10.0023L28.9382 12.0492L31.8044 15.3373C32.2488 15.8467 31.8869 16.6417 31.2113 16.6417Z" fill="url(#paint1_linear_542_12719)"/>
</g>
<defs>
<linearGradient id="paint0_linear_542_12719" x1="16" y1="6.11887" x2="16" y2="33.6815" gradientUnits="userSpaceOnUse">
<stop stop-color="#54A7FF"/>
<stop offset="1" stop-color="#326499"/>
</linearGradient>
<linearGradient id="paint1_linear_542_12719" x1="24" y1="6.11887" x2="24" y2="33.6815" gradientUnits="userSpaceOnUse">
<stop stop-color="#54A7FF"/>
<stop offset="1" stop-color="#326499"/>
</linearGradient>
<clipPath id="clip0_542_12719">
<rect width="32" height="32" fill="white"/>
</clipPath>
</defs>
</svg>
