<svg width="20" height="20" viewBox="0 0 20 20" fill="none" xmlns="http://www.w3.org/2000/svg">
<path fill-rule="evenodd" clip-rule="evenodd" d="M17.3387 6.35208L16.82 5.452C16.3812 4.6904 15.4087 4.42766 14.6461 4.86466V4.86466C14.283 5.07852 13.8499 5.13919 13.4421 5.0333C13.0342 4.92742 12.6853 4.66366 12.4722 4.30021C12.3351 4.06919 12.2614 3.80606 12.2586 3.53743V3.53743C12.271 3.10675 12.1085 2.6894 11.8081 2.38046C11.5078 2.07151 11.0952 1.89728 10.6644 1.89746H9.61938C9.19727 1.89746 8.79256 2.06566 8.4948 2.36485C8.19704 2.66404 8.03077 3.06956 8.0328 3.49166V3.49166C8.02029 4.36317 7.3102 5.06307 6.4386 5.06298C6.16997 5.06019 5.90684 4.98652 5.67582 4.84941V4.84941C4.91318 4.41241 3.94072 4.67514 3.50191 5.43674L2.94509 6.35208C2.50681 7.11273 2.76596 8.08457 3.5248 8.52599V8.52599C4.01805 8.81076 4.32191 9.33706 4.32191 9.90661C4.32191 10.4762 4.01805 11.0025 3.5248 11.2872V11.2872C2.76693 11.7257 2.50749 12.6952 2.94509 13.4535V13.4535L3.4714 14.3612C3.677 14.7322 4.02197 15.006 4.42996 15.1219C4.83795 15.2379 5.27533 15.1865 5.64531 14.9791V14.9791C6.00903 14.7668 6.44245 14.7087 6.84925 14.8176C7.25604 14.9264 7.60249 15.1933 7.8116 15.5588C7.94871 15.7898 8.02239 16.0529 8.02518 16.3216V16.3216C8.02518 17.202 8.73893 17.9158 9.61938 17.9158H10.6644C11.5419 17.9158 12.2544 17.2067 12.2586 16.3292V16.3292C12.2565 15.9058 12.4239 15.4991 12.7233 15.1997C13.0227 14.9003 13.4294 14.733 13.8528 14.735C14.1208 14.7422 14.3828 14.8155 14.6156 14.9486V14.9486C15.3762 15.3868 16.3481 15.1277 16.7895 14.3689V14.3689L17.3387 13.4535C17.5513 13.0886 17.6096 12.6541 17.5008 12.246C17.392 11.838 17.125 11.4902 16.759 11.2796V11.2796C16.3929 11.069 16.1259 10.7212 16.0171 10.3132C15.9083 9.90515 15.9667 9.47058 16.1793 9.1057C16.3175 8.86434 16.5176 8.66423 16.759 8.52599V8.52599C17.5133 8.08481 17.7718 7.11864 17.3387 6.3597V6.3597V6.35208Z" stroke="white" stroke-width="1.11111" stroke-linecap="round" stroke-linejoin="round"/>
<circle cx="10.1457" cy="9.90676" r="2.1968" stroke="white" stroke-width="1.11111" stroke-linecap="round" stroke-linejoin="round"/>
</svg>
